@startuml
!pragma layout smetana

package "PAI.domain" {
    class TeacherCategory {
        - _name: String
        + TeacherCategory(categoryName: String)
        + getName(): String
        + equals(obj: Object): boolean
        + hashCode(): int
    }
}

package "PAI.factory" {
    interface TeacherCategoryFactoryInterface {
        + createTeacherCategory(categoryName: String): TeacherCategory
    }

    class TeacherCategoryFactoryImpl {
        + createTeacherCategory(categoryName: String): TeacherCategory
    }

    interface TeacherCategoryRepositoryListFactoryInterface {
        + getTeacherCategoryList(): List<TeacherCategory>
    }

    class TeacherCategoryRepositoryListFactoryImpl {
        + getTeacherCategoryList(): List<TeacherCategory>
    }
}

package "PAI.repository" {
    class TeacherCategoryRepository {
        - teacherCategoryRepositoryList: List<TeacherCategory>
        - teacherCategoryFactory: TeacherCategoryFactoryImpl
        + TeacherCategoryRepository(teacherCategoryFactory: TeacherCategoryFactoryImpl, teacherCategoryRepositoryListFactory: TeacherCategoryRepositoryListFactoryImpl)
        + registerTeacherCategory(name: String): boolean
        + getTeacherCategoryByName(name: String): Optional<TeacherCategory>
        + getTeacherCategoryList(): List<TeacherCategory>
    }
}

TeacherCategoryFactoryInterface <|.. TeacherCategoryFactoryImpl
TeacherCategoryRepositoryListFactoryInterface <|.. TeacherCategoryRepositoryListFactoryImpl

TeacherCategoryFactoryImpl --> TeacherCategory
TeacherCategoryRepositoryListFactoryImpl --> TeacherCategoryRepository

TeacherCategory "1..*" --> "1" TeacherCategoryRepository: teacherCategoryRepositoryList

@enduml